<svg width="636" height="214" viewBox="0 0 636 214" fill="none" xmlns="http://www.w3.org/2000/svg">
<g clip-path="url(#clip0_0_1)">
<rect x="408" width="199" height="96" rx="16" fill="white" fill-opacity="0.05"/>
<path d="M500.514 41.1207V54.3001L502.211 54.3058V48.0297H506.296V46.3671H502.206V42.7717H507.533V41.1149H500.514V41.1207ZM510.581 43.8014C511.197 43.8014 511.692 43.3067 511.692 42.6912C511.692 42.0756 511.197 41.5809 510.581 41.5809C509.966 41.5809 509.471 42.0756 509.471 42.6912C509.471 43.3067 509.966 43.8014 510.581 43.8014ZM509.724 45.4582V54.3116H511.421V45.4582H509.724Z" fill="white"/>
<path fill-rule="evenodd" clip-rule="evenodd" d="M517.709 45.1993C515.46 45.1993 513.889 47.1035 513.889 49.3643C513.889 51.6251 515.46 53.5292 517.709 53.5292C518.744 53.5292 519.59 53.138 520.211 52.4822V53.6615C520.229 55.1285 519.055 56.3365 517.582 56.3538C517.571 56.3538 517.565 56.3538 517.554 56.3538C517.013 56.3538 516.472 56.1467 516.052 55.8418L515.201 57.3145C517.22 58.6204 519.906 58.0393 521.212 56.0259C521.667 55.3183 521.908 54.4957 521.908 53.6558V45.464H520.211V46.2578C519.59 45.602 518.739 45.2108 517.709 45.2108V45.1993ZM515.58 49.3643C515.58 47.9606 516.65 46.8561 517.893 46.8561C519.136 46.8561 520.2 47.9664 520.2 49.3643C520.2 50.7679 519.13 51.8667 517.893 51.8667C516.656 51.8667 515.58 50.7737 515.58 49.3643Z" fill="white"/>
<path d="M528.018 46.8561C527.005 46.8734 526.194 47.7018 526.2 48.7142V54.3116H524.503V45.4582H526.2V46.2693C526.718 45.5848 527.529 45.1878 528.386 45.2051C529.577 45.2051 530.491 45.7919 531.015 46.695C531.607 45.7746 532.62 45.2166 533.713 45.2051C535.64 45.2051 536.848 46.7583 536.848 48.6912V54.3116H535.163V48.7085C535.168 47.696 534.357 46.8676 533.345 46.8504C532.332 46.8676 531.521 47.696 531.527 48.7085V54.3059H529.83V48.7085C529.836 47.7018 529.03 46.8734 528.018 46.8504V46.8561Z" fill="white"/>
<path fill-rule="evenodd" clip-rule="evenodd" d="M545.886 46.4649C545.103 45.6538 544.028 45.1936 542.9 45.2051C540.375 45.2051 538.586 47.3336 538.586 49.8878C538.586 52.442 540.375 54.5705 542.9 54.5705C544.028 54.5762 545.103 54.1218 545.886 53.3106V54.3174H547.577V45.4582H545.88V46.4649H545.886ZM540.277 49.882C540.277 48.1965 541.571 46.8561 543.084 46.8561C544.586 46.8561 545.891 48.1965 545.891 49.882C545.891 51.5676 544.597 52.9022 543.084 52.9022C541.583 52.9022 540.277 51.5676 540.277 49.882Z" fill="white"/>
<path d="M477.667 35H473.333C470.94 35 469 36.9401 469 39.3333C469 41.7266 470.94 43.6667 473.333 43.6667M477.667 35V43.6667M477.667 35H482C484.393 35 486.333 36.9401 486.333 39.3333C486.333 41.7266 484.393 43.6667 482 43.6667M473.333 43.6667H477.667M473.333 43.6667C470.94 43.6667 469 45.6067 469 48C469 50.3933 470.94 52.3334 473.333 52.3334M477.667 43.6667V52.3334M477.667 43.6667H482M482 43.6667C484.393 43.6667 486.333 45.6067 486.333 48C486.333 50.3933 484.393 52.3334 482 52.3334C479.607 52.3334 477.667 50.3933 477.667 48C477.667 45.6067 479.607 43.6667 482 43.6667ZM477.667 52.3334H473.333M477.667 52.3334V56.6666C477.667 59.0599 475.727 61 473.333 61C470.94 61 469 59.0599 469 56.6666C469 54.2735 470.94 52.3334 473.333 52.3334" stroke="white" stroke-width="1.82857" stroke-linecap="round" stroke-linejoin="round"/>
</g>
<rect x="409" y="1" width="197" height="94" rx="15" stroke="white" stroke-width="2"/>
<rect x="187" y="1" width="204" height="94" rx="15" fill="white" fill-opacity="0.05"/>
<rect x="187" y="1" width="204" height="94" rx="15" stroke="white" stroke-width="2"/>
<g clip-path="url(#clip1_0_1)">
<path fill-rule="evenodd" clip-rule="evenodd" d="M243.012 38.8862H239V56.8845H250.12V53.3307H243.012V38.8862Z" fill="white"/>
<path d="M253.788 42.8986C254.991 42.8986 255.966 41.9234 255.966 40.7205C255.966 39.5175 254.991 38.5423 253.788 38.5423C252.585 38.5423 251.61 39.5175 251.61 40.7205C251.61 41.9234 252.585 42.8986 253.788 42.8986Z" fill="white"/>
<path fill-rule="evenodd" clip-rule="evenodd" d="M251.84 44.6182H255.623V56.8845H251.84V44.6182Z" fill="white"/>
<path fill-rule="evenodd" clip-rule="evenodd" d="M283.938 44.6182H279.238L275.111 49.6623V38.8862H271.213V56.8845H275.111V50.9233L279.123 56.8845H283.938L279.009 50.2354L283.938 44.6182ZM264.908 44.3889C263.074 44.3889 261.928 45.306 261.355 46.3377H261.24V44.6182H257.686V56.8845H261.469V50.9233C261.469 49.3183 261.813 47.7134 263.762 47.7134C265.596 47.7134 265.711 49.6623 265.711 51.0379V56.9991H269.494V50.3501C269.379 46.9109 268.691 44.3889 264.908 44.3889Z" fill="white"/>
<path fill-rule="evenodd" clip-rule="evenodd" d="M289.9 44.3889C286.116 44.3889 283.136 46.911 283.136 50.8087C283.136 54.7063 286.116 57.2284 289.9 57.2284C291.848 57.2284 293.912 56.4259 295.058 54.821L292.421 52.7575C291.734 53.6746 290.931 54.2478 289.67 54.2478C288.18 54.2478 287.148 53.3307 286.804 51.955H295.517V50.694C295.517 46.7963 293.339 44.3889 289.9 44.3889ZM286.919 49.433C287.033 48.2866 287.836 47.1402 289.67 47.1402C291.046 47.1402 291.963 48.1719 291.963 49.433H286.919ZM306.064 45.8792C305.146 44.7328 303.771 44.1596 302.166 44.1596C298.727 44.1596 296.663 47.3695 296.663 50.694C296.663 54.3624 299.071 56.9991 302.624 56.9991C304.344 56.9991 305.719 55.9674 306.408 55.0503H306.522V56.7698H309.961V38.7716H306.178L306.064 45.8792ZM303.312 53.9039C301.478 53.9039 300.332 52.5282 300.332 50.694C300.332 48.8598 301.478 47.4841 303.312 47.4841C305.146 47.4841 306.293 48.7452 306.293 50.694C306.293 52.6429 305.261 53.9039 303.312 53.9039Z" fill="white"/>
<path fill-rule="evenodd" clip-rule="evenodd" d="M337.016 35.1032H315.464C314.432 35.1032 313.63 35.9056 313.63 37.052V58.948C313.63 59.8651 314.432 60.8968 315.464 60.8968H337.016C338.048 60.8968 338.85 60.0944 338.85 58.948V36.9374C338.965 35.9056 338.162 35.1032 337.016 35.1032ZM321.081 56.8845H317.298V44.6182H321.081V56.8845ZM319.247 43.0132C318.1 43.0132 317.069 42.0961 317.069 40.8351C317.069 39.6887 317.986 38.657 319.247 38.657C320.393 38.657 321.425 39.5741 321.425 40.8351C321.425 42.0961 320.508 43.0132 319.247 43.0132ZM335.182 56.8845H331.398V50.9233C331.398 49.5476 331.398 47.5988 329.45 47.5988C327.501 47.5988 327.157 49.2037 327.157 50.8087V56.7698H323.488V44.6182H327.042V46.3377H327.157C327.73 45.4206 328.877 44.3889 330.711 44.3889C334.494 44.3889 335.182 46.911 335.182 50.2354V56.8845Z" fill="white"/>
</g>
<g opacity="0.25">
<rect x="-34" y="1" width="199.077" height="94" rx="15" fill="white" fill-opacity="0.05"/>
<rect x="-34" y="1" width="199.077" height="94" rx="15" stroke="white" stroke-width="2"/>
</g>
<rect x="281" y="119" width="240.373" height="94" rx="15" fill="white" fill-opacity="0.04"/>
<rect x="281" y="119" width="240.373" height="94" rx="15" stroke="white" stroke-width="2"/>
<path fill-rule="evenodd" clip-rule="evenodd" d="M458.086 167.093C458.337 166.8 458.782 166.813 459.01 167.125H459.009L459.878 168.314C460.043 168.542 460.042 168.857 459.869 169.08C458.36 171.037 455.716 172.921 452.526 173.104C450.008 173.247 447.931 172.293 446.8 170.489C446.576 170.132 446.083 170.112 445.832 170.449C444.49 172.25 442.868 173.658 441.177 173.755C438.165 173.926 437.314 171.906 438.059 167.452C438.134 167.009 437.745 166.634 437.326 166.745C436.702 166.91 436.039 166.984 435.366 166.925C435.086 166.901 434.824 167.072 434.739 167.349C433.625 171.01 430.972 174.416 427.539 174.613C425.347 174.739 422.073 173.483 422.4 168.236C422.427 167.809 422.044 167.473 421.65 167.593C420.962 167.802 420.222 167.9 419.469 167.836C419.189 167.812 418.928 167.982 418.844 168.26C417.729 171.921 415.076 175.327 411.643 175.524C409.451 175.649 406.177 174.394 406.505 169.147C406.532 168.72 406.149 168.384 405.754 168.504C405.067 168.713 404.327 168.813 403.573 168.747C403.294 168.723 403.033 168.893 402.948 169.171C401.833 172.832 399.181 176.238 395.748 176.435C394.188 176.524 392.079 175.914 391.111 173.665C390.924 173.231 390.365 173.165 390.088 173.543C388.732 175.393 387.081 176.853 385.357 176.951C383.589 177.053 382.622 176.344 382.202 175.079C382.053 174.633 381.495 174.527 381.193 174.88C379.987 176.299 378.613 177.338 377.222 177.417C375.079 177.541 373.845 175.952 373.743 174.028C373.626 171.782 374.597 169.153 375.681 166.283C375.832 165.885 375.56 165.453 375.148 165.435C374.522 165.408 373.808 165.343 373.136 165.217C372.834 165.159 372.54 165.347 372.454 165.655C371.171 170.234 369.207 174.722 367.55 177.375C367.365 177.672 366.982 177.752 366.704 177.547L365.438 176.615C365.179 176.423 365.108 176.053 365.282 175.773C367.676 171.938 369.802 165.932 370.536 161.491C370.581 161.207 370.812 160.996 371.089 160.98L372.772 160.883C373.158 160.86 373.462 161.22 373.392 161.616L373.385 161.658C373.322 162.01 373.557 162.342 373.897 162.388C375.406 162.595 377.661 162.621 379.192 162.561C379.622 162.545 379.927 162.99 379.77 163.406C378.542 166.673 376.897 171.2 376.991 172.992C377.034 173.801 377.392 174.243 378.02 174.207C379.222 174.138 381.071 171.721 382.473 169.029C382.499 168.981 382.517 168.929 382.529 168.875C383.001 166.767 383.702 164.417 384.41 162.043L384.454 161.895C384.527 161.647 384.741 161.474 384.991 161.459L387.006 161.344C387.422 161.32 387.734 161.738 387.608 162.152C387.504 162.493 387.4 162.832 387.298 163.167C385.524 168.981 384.035 173.863 386.041 173.749C387.352 173.674 389.21 171.449 390.808 168.283C390.834 168.23 390.853 168.175 390.864 168.117C390.944 167.703 391.042 167.27 391.161 166.818C392.093 163.096 393.15 159.409 394.208 155.718C394.534 154.579 394.861 153.439 395.184 152.298C395.256 152.045 395.471 151.868 395.723 151.853L397.792 151.735C398.212 151.711 398.524 152.133 398.392 152.55C397.565 155.142 396.702 157.903 395.881 160.56C395.709 161.12 396.308 161.586 396.782 161.264C397.598 160.705 398.542 160.335 399.456 160.283C401.785 160.15 403.37 162.065 403.522 164.951C403.53 165.104 403.539 165.268 403.543 165.435C403.552 165.755 403.791 166.013 404.097 166.04C405.193 166.137 406.314 165.811 407.179 165.04C407.268 164.96 407.328 164.853 407.358 164.736C408.216 161.405 409.163 158.099 410.11 154.788C410.435 153.655 410.76 152.521 411.081 151.385C411.152 151.133 411.368 150.955 411.62 150.94L413.689 150.823C414.109 150.799 414.421 151.221 414.289 151.638C413.462 154.23 412.598 156.99 411.778 159.648C411.606 160.208 412.206 160.674 412.679 160.351C413.495 159.793 414.44 159.423 415.353 159.37C417.681 159.238 419.266 161.153 419.419 164.039C419.427 164.191 419.436 164.356 419.44 164.523C419.447 164.842 419.689 165.101 419.994 165.128C421.09 165.225 422.21 164.899 423.076 164.127C423.165 164.048 423.225 163.941 423.255 163.824C424.113 160.493 425.059 157.187 426.007 153.876C426.332 152.743 426.656 151.609 426.978 150.473C427.05 150.221 427.265 150.043 427.517 150.028L429.586 149.91C430.006 149.886 430.318 150.309 430.186 150.725C429.359 153.317 428.496 156.078 427.675 158.736C427.503 159.296 428.102 159.762 428.576 159.439C429.392 158.881 430.336 158.51 431.25 158.458C433.579 158.325 435.164 160.241 435.316 163.127C435.325 163.281 435.333 163.444 435.337 163.611C435.346 163.929 435.584 164.189 435.89 164.215C436.95 164.309 438.034 164.008 438.887 163.29C438.981 163.211 439.047 163.099 439.079 162.976C440.056 159.211 441.491 154.278 442.874 149.556C442.947 149.307 443.162 149.134 443.412 149.119L445.462 149.001C445.878 148.977 446.189 149.392 446.064 149.806C444.16 156.127 442.608 161.658 441.752 164.92C440.614 169.346 440.57 170.622 441.863 170.548C442.95 170.485 444.413 168.944 445.793 166.615C445.848 166.524 445.876 166.419 445.881 166.313C446.061 161.65 448.92 157.408 453.17 157.165C456.016 157.002 457.575 159.152 457.687 161.268C457.9 165.307 453.907 167.888 450.038 167.649C449.588 167.621 449.26 168.105 449.458 168.526C449.999 169.681 451.137 170.327 453.079 170.215C454.927 170.11 456.865 168.515 458.086 167.093ZM394.128 168.226C393.21 171.906 394.324 173.347 395.766 173.265C398.133 173.129 400.423 168.792 400.247 165.444C400.169 163.982 399.314 163.221 398.316 163.278C396.653 163.373 394.862 165.289 394.128 168.226ZM410.025 167.315C409.107 170.995 410.221 172.436 411.663 172.354H411.662C414.029 172.218 416.32 167.881 416.144 164.533C416.068 163.072 415.211 162.31 414.212 162.367C412.55 162.463 410.76 164.378 410.025 167.315ZM425.922 166.404C425.004 170.085 426.119 171.526 427.56 171.443H427.559C429.924 171.308 432.217 166.97 432.041 163.623C431.964 162.161 431.108 161.399 430.11 161.456C428.447 161.552 426.656 163.467 425.922 166.404ZM454.664 161.594C454.65 160.629 454.058 159.93 453.096 159.986H453.095C451.207 160.095 449.729 162.139 449.259 164.618C449.184 165.013 449.473 165.38 449.859 165.371C452.297 165.31 454.742 163.7 454.664 161.594ZM366.133 163.384C365.886 155.911 361.027 150.98 353.847 151.236C350.764 151.377 347.236 152.546 344.582 154.636C344.333 154.833 344.268 155.195 344.437 155.469L345.564 157.303C345.756 157.616 346.165 157.68 346.444 157.448C348.464 155.769 351.222 154.669 353.874 154.553C358.795 154.348 362.41 157.498 362.621 163.584C362.885 170.67 358.122 178.776 350.469 179.215C350.202 179.23 349.923 179.236 349.645 179.236C349.255 179.236 348.966 178.855 349.064 178.461C350.54 172.502 352.263 166.112 354.021 160.165C354.143 159.751 353.833 159.339 353.418 159.363L351.18 159.492C350.929 159.507 350.714 159.681 350.641 159.932C348.952 165.776 347.262 172.114 345.741 178.061C345.654 178.404 345.305 178.602 344.981 178.491C344.188 178.221 343.463 177.913 342.846 177.553C342.551 177.38 342.176 177.503 342.024 177.819L341.063 179.829C340.921 180.126 341.026 180.49 341.306 180.65C343.485 181.886 346.793 182.592 350.118 182.403C361.062 181.776 366.423 171.668 366.133 163.387V163.384ZM387.639 154.202C386.308 154.279 385.127 155.775 385.21 157.351C385.265 158.391 385.932 159.085 386.968 159.027C388.299 158.95 389.513 157.375 389.434 155.875C389.379 154.836 388.6 154.147 387.639 154.202Z" fill="white"/>
<rect x="9" y="119" width="116" height="94" rx="15" fill="white" fill-opacity="0.05"/>
<rect x="9" y="119" width="116" height="94" rx="15" stroke="white" stroke-width="2"/>
<path d="M59.5792 182.251C74.6736 182.251 82.9296 169.745 82.9296 158.901C82.9296 158.545 82.9296 158.192 82.9056 157.84C84.5117 156.678 85.8982 155.24 87 153.592C85.5023 154.256 83.9133 154.691 82.2864 154.883C83.9992 153.858 85.282 152.244 85.8944 150.344C84.2835 151.3 82.5209 151.973 80.6832 152.336C79.1315 150.686 76.9643 149.749 74.6994 149.749C70.193 149.749 66.4849 153.457 66.4849 157.963C66.4849 158.589 66.5563 159.212 66.6976 159.821C60.1024 159.49 53.9491 156.371 49.784 151.246C47.618 154.975 48.7387 159.807 52.3248 162.201C51.0189 162.163 49.7411 161.81 48.6 161.174V161.278C48.6011 165.17 51.3693 168.553 55.184 169.323C53.9759 169.653 52.708 169.701 51.4784 169.464C52.5509 172.799 55.6434 175.097 59.1456 175.163C56.2402 177.446 52.649 178.687 48.9536 178.683C48.3006 178.682 47.6483 178.642 47 178.565C50.7527 180.973 55.1203 182.251 59.5792 182.245" fill="white"/>
<rect x="145" y="119" width="116" height="94" rx="15" fill="white" fill-opacity="0.05"/>
<rect x="145" y="119" width="116" height="94" rx="15" stroke="white" stroke-width="2"/>
<g clip-path="url(#clip2_0_1)">
<path fill-rule="evenodd" clip-rule="evenodd" d="M206.135 173.67C210.033 173.21 214.178 171.793 214.178 165.061C214.178 163.148 213.504 161.589 212.407 160.384C212.584 159.924 213.15 158.187 212.193 155.779C212.193 155.779 210.776 155.318 207.446 157.55C206.029 157.16 204.47 156.912 203.018 156.912C201.529 156.912 199.97 157.16 198.589 157.55C195.223 155.318 193.806 155.779 193.806 155.779C192.849 158.187 193.416 159.924 193.593 160.384C192.495 161.589 191.822 163.148 191.822 165.061C191.822 171.793 195.967 173.21 199.864 173.67C199.368 174.096 198.908 174.91 198.731 176.044C197.738 176.469 195.152 177.284 193.593 174.591C193.593 174.591 192.672 172.926 190.936 172.82C190.936 172.82 189.2 172.785 190.795 173.882C190.795 173.882 191.963 174.414 192.743 176.433C192.743 176.433 193.806 179.8 198.695 178.736V181.747C198.695 182.209 198.341 182.74 197.455 182.598C190.511 180.295 185.516 173.705 185.516 165.982C185.516 156.31 193.345 148.48 203.018 148.48C212.654 148.48 220.52 156.31 220.484 165.982C220.484 173.705 215.489 180.26 208.545 182.598C207.659 182.775 207.305 182.244 207.305 181.747V176.895C207.305 175.264 206.772 174.202 206.135 173.67ZM223 166.018C223 154.963 214.036 146 203.018 146C191.963 146 183 154.963 183 166.018C183 177.036 191.963 186 203.018 186C214.036 186 223 177.036 223 166.018Z" fill="white"/>
</g>
<g opacity="0.25">
<rect x="541" y="119" width="116" height="94" rx="15" fill="white" fill-opacity="0.05"/>
<rect x="541" y="119" width="116" height="94" rx="15" stroke="white" stroke-width="2"/>
</g>
<defs>
<clipPath id="clip0_0_1">
<rect x="408" width="199" height="96" rx="16" fill="white"/>
</clipPath>
<clipPath id="clip1_0_1">
<rect width="100" height="25.7937" fill="white" transform="translate(239 35.1032)"/>
</clipPath>
<clipPath id="clip2_0_1">
<rect width="40" height="40" fill="white" transform="translate(183 146)"/>
</clipPath>
</defs>
</svg>
